# xmcd CD database file
#
# Track frame offsets:
#	150
#	13949
#	29108
#	49413
#	67826
#	86974
#	100645
#	116597
#	131954
#	148653
#	167938
#	185847
#	201885
#
# Disc length: 2872 seconds
#
# Revision: 2
# Processed by: cddbd v1.5.2PL0 Copyright (c) Steve Scherf et al.
# Submitted via: CDex 1.51
#
DISCID=cb0b360d
DTITLE=Sunny Sweeney - Provoked
DYEAR=2014
DGENRE=Country
TTITLE0=Sunny Sweeney - You Don't Know Your Husband
TTITLE1=Sunny Sweeney - Bad Girl Phase
TTITLE2=Sunny Sweeney - Second Guessing
TTITLE3=Sunny Sweeney - Carolina On The Line
TTITLE4=Sunny Sweeney - Find Me
TTITLE5=Sunny Sweeney - Can't Let Go
TTITLE6=Sunny Sweeney - Front Row Seats
TTITLE7=Sunny Sweeney feat. Will Hoge - My Bed
TTITLE8=Sunny Sweeney - Uninvited
TTITLE9=Sunny Sweeney - Sunday Dress
TTITLE10=Sunny Sweeney - Used Cars
TTITLE11=Sunny Sweeney - Backhanded Compliment
TTITLE12=Sunny Sweeney - Everybody Else Can Kiss My Ass
EXTD=YEAR: 2014
EXTT0=
EXTT1=
EXTT2=
EXTT3=
EXTT4=
EXTT5=
EXTT6=
EXTT7=
EXTT8=
EXTT9=
EXTT10=
EXTT11=
EXTT12=
PLAYORDER=
